<?xml version="1.0" encoding="UTF-8" standalone="no"?>
<!-- Created with Inkscape (http://www.inkscape.org/) -->

<svg
   width="210mm"
   height="297mm"
   viewBox="0 0 210 297"
   version="1.1"
   id="svg5"
   inkscape:version="1.2.1 (9c6d41e410, 2022-07-14)"
   sodipodi:docname="Shooting mechanism holder MK1.svg"
   xmlns:inkscape="http://www.inkscape.org/namespaces/inkscape"
   xmlns:sodipodi="http://sodipodi.sourceforge.net/DTD/sodipodi-0.dtd"
   xmlns="http://www.w3.org/2000/svg"
   xmlns:svg="http://www.w3.org/2000/svg">
  <sodipodi:namedview
     id="namedview7"
     pagecolor="#ffffff"
     bordercolor="#000000"
     borderopacity="0.25"
     inkscape:showpageshadow="2"
     inkscape:pageopacity="0.0"
     inkscape:pagecheckerboard="0"
     inkscape:deskcolor="#d1d1d1"
     inkscape:document-units="mm"
     showgrid="true"
     inkscape:zoom="1.9779745"
     inkscape:cx="19.211573"
     inkscape:cy="445.65793"
     inkscape:window-width="1920"
     inkscape:window-height="1001"
     inkscape:window-x="-9"
     inkscape:window-y="-9"
     inkscape:window-maximized="1"
     inkscape:current-layer="layer1">
    <inkscape:grid
       type="xygrid"
       id="grid2505"
       units="mm"
       spacingx="1"
       spacingy="1" />
  </sodipodi:namedview>
  <defs
     id="defs2" />
  <g
     inkscape:label="Layer 1"
     inkscape:groupmode="layer"
     id="layer1">
    <rect
       style="opacity:1;fill:#ff0000;fill-opacity:1;stroke-width:0.204124"
       id="rect24046"
       width="25"
       height="100"
       x="139"
       y="5"
       ry="8.8817842e-15" />
    <path
       id="rect321"
       style="opacity:1;fill:#ff0000;fill-opacity:1;stroke-width:0.0534521"
       d="M 4.9998334,4.99985 V 8.00019 47.99981 H 70 V 8.00019 4.99985 H 64.999789 V 8.00019 H 60.000094 V 4.99985 H 54.999882 V 8.00019 H 49.999671 V 4.99985 H 44.999976 V 8.00019 H 39.999764 V 4.99985 H 35.000069 V 8.00019 H 29.999858 V 4.99985 H 25.000163 V 8.00019 H 19.999951 V 4.99985 H 14.99974 V 8.00019 H 10.000045 V 4.99985 Z M 25.000163,15.49999 h 2.999817 v 25.00002 h -2.999817 z m 21.999691,0 h 2.999817 v 25.00002 h -2.999817 z" />
    <path
       id="rect321-5"
       style="fill:#ff0000;fill-opacity:1;stroke-width:0.0534521"
       d="m 9.999853,80.00019 v 36.99962 H 65.00002 V 80.00019 Z m 15.00033,7.4998 H 28 v 25.00002 h -2.999817 z m 21.999691,0 h 2.999817 v 25.00002 h -2.999817 z"
       sodipodi:nodetypes="ccccccccccccccc" />
    <path
       id="rect321-5-9"
       style="fill:#ff0000;fill-opacity:1;stroke-width:0.0534521"
       d="m 9.9998529,120.00019 v 33.99962 H 65.00002 v -33.99962 z m 15.0003301,7.4998 H 28 v 25.00002 h -2.999817 z m 21.999691,0 h 2.999817 v 25.00002 h -2.999817 z"
       sodipodi:nodetypes="ccccccccccccccc" />
    <path
       id="rect321-7"
       style="fill:#ff0000;fill-opacity:1;stroke-width:0.0534521"
       d="M 76.999907,4.99985 V 8.00019 H 71.999695 V 47.99981 H 136.99986 V 8.00019 h -4.99969 V 4.99985 h -5.00021 v 3.00034 h -5.00021 V 4.99985 h -4.9997 v 3.00034 h -5.00021 V 4.99985 h -4.99969 v 3.00034 h -5.00022 V 4.99985 h -5.000213 v 3.00034 h -4.99969 V 4.99985 H 86.999813 V 8.00019 H 82.000118 V 4.99985 Z" />
    <text
       xml:space="preserve"
       style="font-size:8.65347px;text-align:center;text-anchor:middle;fill:#000000;fill-opacity:1;stroke:none;stroke-width:0.136275;stroke-opacity:1"
       x="106.23014"
       y="18.881657"
       id="text4978-8"><tspan
         sodipodi:role="line"
         id="tspan4976-8"
         style="font-style:normal;font-variant:normal;font-weight:normal;font-stretch:normal;font-family:Stencil;-inkscape-font-specification:Stencil;text-align:center;text-anchor:middle;fill:#000000;fill-opacity:1;stroke-width:0.136275"
         x="106.23014"
         y="18.881657">Shooting </tspan><tspan
         sodipodi:role="line"
         style="font-style:normal;font-variant:normal;font-weight:normal;font-stretch:normal;font-family:Stencil;-inkscape-font-specification:Stencil;text-align:center;text-anchor:middle;fill:#000000;fill-opacity:1;stroke-width:0.136275"
         x="106.23014"
         y="31.538824"
         id="tspan2357">Mechanism</tspan><tspan
         sodipodi:role="line"
         style="font-style:normal;font-variant:normal;font-weight:normal;font-stretch:normal;font-family:Stencil;-inkscape-font-specification:Stencil;text-align:center;text-anchor:middle;fill:#000000;fill-opacity:1;stroke-width:0.136275"
         x="106.23014"
         y="44.195992"
         id="tspan2359">MK4</tspan></text>
    <path
       id="rect2395"
       style="opacity:1;fill:#ff0000;fill-opacity:1;stroke-width:0.190692"
       d="m 33.37037,49.870371 -28.2587396,28.259256 56.5179986,2e-6 z" />
    <path
       id="rect2395-6"
       style="fill:#ff0000;fill-opacity:1;stroke-width:0.190692"
       d="m 63.37037,78.129629 -28.25874,-28.259256 56.518,-2e-6 z" />
  </g>
</svg>
