<?xml version="1.0" encoding="UTF-8" standalone="no"?>
<!-- Created with Inkscape (http://www.inkscape.org/) -->

<svg
   width="210mm"
   height="297mm"
   viewBox="0 0 210 297"
   version="1.1"
   id="svg5"
   inkscape:version="1.2.1 (9c6d41e410, 2022-07-14)"
   sodipodi:docname="Shooting mechanism MK3.svg"
   xmlns:inkscape="http://www.inkscape.org/namespaces/inkscape"
   xmlns:sodipodi="http://sodipodi.sourceforge.net/DTD/sodipodi-0.dtd"
   xmlns="http://www.w3.org/2000/svg"
   xmlns:svg="http://www.w3.org/2000/svg">
  <sodipodi:namedview
     id="namedview7"
     pagecolor="#ffffff"
     bordercolor="#000000"
     borderopacity="0.25"
     inkscape:showpageshadow="2"
     inkscape:pageopacity="0.0"
     inkscape:pagecheckerboard="0"
     inkscape:deskcolor="#d1d1d1"
     inkscape:document-units="mm"
     showgrid="true"
     inkscape:zoom="0.69931958"
     inkscape:cx="280.27243"
     inkscape:cy="311.0166"
     inkscape:window-width="1920"
     inkscape:window-height="1001"
     inkscape:window-x="-9"
     inkscape:window-y="-9"
     inkscape:window-maximized="1"
     inkscape:current-layer="layer1">
    <inkscape:grid
       type="xygrid"
       id="grid2505"
       units="mm"
       spacingx="1"
       spacingy="1" />
  </sodipodi:namedview>
  <defs
     id="defs2" />
  <g
     inkscape:label="Layer 1"
     inkscape:groupmode="layer"
     id="layer1">
    <path
       id="rect448"
       style="fill:#ff0000;fill-opacity:1;stroke-width:0.0499999"
       d="M 9.999998,5.00018 V 8 H 4.9997864 v 18.99987 3.00034 H 9.999998 v -3.00034 h 4.999695 v 3.00034 h 5.000211 v -3.00034 h 5.000212 v 3.00034 h 4.999695 v -3.00034 h 5.000211 v 3.00034 h 4.999695 v -3.00034 h 5.000212 v 3.00034 h 4.999695 v -3.00034 h 5.000211 v 3.00034 h 5.000212 v -3.00034 h 4.999695 v 3.00034 h 5.000211 v -3.00034 h 4.999695 v 3.00034 h 5.000212 v -3.00034 h 5.000211 v 3.00034 h 4.999695 v -3.00034 h 5.000214 v 3.00034 h 4.99969 v -3.00034 h 5.00021 v 3.00034 h 5.00022 v -3.00034 h 4.99969 v 3.00034 H 120 v -3.00034 h 4.9997 v 3.00034 h 5.00021 v -3.00034 h 5.00021 v 3.00034 h 4.99969 v -3.00034 h 5.00022 v 3.00034 h 4.99969 v -3.00034 h 5.00021 V 8 5.00018 h -5.00021 V 8 h -4.99969 V 5.00018 h -5.00022 V 8 h -4.99969 V 5.00018 h -5.00021 V 8 H 124.9997 V 5.00018 H 120 V 8 h -5.00021 V 5.00018 H 110.0001 V 8 h -5.00022 V 5.00018 H 99.99967 V 8 H 94.99998 V 5.00018 H 89.999766 V 8 H 85.000071 V 5.00018 H 79.99986 V 8 H 74.999648 V 5.00018 H 69.999953 V 8 H 64.999742 V 5.00018 H 60.000047 V 8 H 54.999835 V 5.00018 H 49.999624 V 8 H 44.999929 V 5.00018 H 39.999717 V 8 H 35.000022 V 5.00018 H 29.999811 V 8 H 25.000116 V 5.00018 H 19.999904 V 8 H 14.999693 V 5.00018 Z m 0,8.00003 h 2.999817 v 8.99997 H 9.999998 Z" />
    <path
       id="rect448-4"
       style="fill:#ff0000;fill-opacity:1;stroke-width:0.0499999"
       d="M 9.999998,32.00018 V 35 H 4.999786 v 18.99987 3.00034 h 5.000212 v -3.00034 h 4.999695 v 3.00034 h 5.000211 v -3.00034 h 5.000212 v 3.00034 h 4.999695 v -3.00034 h 5.000211 v 3.00034 h 4.999695 v -3.00034 h 5.000212 v 3.00034 h 4.999695 v -3.00034 h 5.000211 v 3.00034 h 5.000212 v -3.00034 h 4.999695 v 3.00034 h 5.000208 v -3.00034 h 4.9997 v 3.00034 h 5.00021 v -3.00034 h 5.00021 v 3.00034 h 4.9997 v -3.00034 h 5.00021 v 3.00034 h 4.99969 v -3.00034 h 5.00021 v 3.00034 h 5.00022 v -3.00034 h 4.99969 v 3.00034 H 120 v -3.00034 h 4.9997 v 3.00034 h 5.00021 v -3.00034 h 5.00021 v 3.00034 h 4.99969 v -3.00034 h 5.00022 v 3.00034 h 4.99969 v -3.00034 h 5.00021 V 35 32.00018 h -5.00021 V 35 h -4.99969 v -2.99982 h -5.00022 V 35 h -4.99969 v -2.99982 h -5.00021 V 35 H 124.9997 V 32.00018 H 120 V 35 h -5.00021 V 32.00018 H 110.0001 V 35 h -5.00022 V 32.00018 H 99.99967 V 35 H 94.99998 V 32.00018 H 89.99977 V 35 h -4.9997 V 32.00018 H 79.99986 V 35 h -5.00021 v -2.99982 h -4.9997 V 35 H 64.999742 V 32.00018 H 60.000047 V 35 H 54.999835 V 32.00018 H 49.999624 V 35 H 44.999929 V 32.00018 H 39.999717 V 35 H 35.000022 V 32.00018 H 29.999811 V 35 H 25.000116 V 32.00018 H 19.999904 V 35 h -5.000211 v -2.99982 z m 0,8.00003 h 2.999817 v 8.99997 H 9.999998 Z" />
    <path
       id="rect448-7"
       style="fill:#ff0000;fill-opacity:1;stroke-width:0.0499999"
       d="m 9.999998,59.000179 v 2.99982 H 4.9997864 v 18.99987 3.00034 H 9.999998 v -3.00034 h 4.999695 v 3.00034 h 5.000211 v -3.00034 h 5.000212 v 3.00034 h 4.999695 v -3.00034 h 5.000211 v 3.00034 h 4.999695 v -3.00034 h 5.000212 v 3.00034 h 4.999695 v -3.00034 h 5.000211 v 3.00034 h 5.000212 v -3.00034 h 4.999695 v 3.00034 h 5.000211 v -3.00034 h 4.999695 v 3.00034 h 5.000212 v -3.00034 h 5.000211 v 3.00034 h 4.999695 v -3.00034 h 5.000214 v 3.00034 h 4.99969 v -3.00034 h 5.00021 v 3.00034 h 5.00022 v -3.00034 h 4.99969 v 3.00034 H 120 v -3.00034 h 4.9997 v 3.00034 h 5.00021 v -3.00034 h 5.00021 v 3.00034 h 4.99969 v -3.00034 h 5.00022 v 3.00034 h 4.99969 v -3.00034 h 5.00021 v -18.99987 -2.99982 h -5.00021 v 2.99982 h -4.99969 v -2.99982 h -5.00022 v 2.99982 h -4.99969 v -2.99982 h -5.00021 v 2.99982 h -5.00021 v -2.99982 H 120 v 2.99982 h -5.00021 v -2.99982 h -4.99969 v 2.99982 h -5.00022 v -2.99982 h -5.00021 v 2.99982 h -4.99969 v -2.99982 h -5.000214 v 2.99982 h -4.999695 v -2.99982 H 79.99986 v 2.99982 h -5.000212 v -2.99982 h -4.999695 v 2.99982 h -5.000211 v -2.99982 h -4.999695 v 2.99982 h -5.000212 v -2.99982 h -5.000211 v 2.99982 h -4.999695 v -2.99982 h -5.000212 v 2.99982 h -4.999695 v -2.99982 h -5.000211 v 2.99982 h -4.999695 v -2.99982 h -5.000212 v 2.99982 h -5.000211 v -2.99982 z m 0,8.00003 h 2.999817 v 8.99997 H 9.999998 Z" />
    <path
       id="rect448-4-4"
       style="fill:#ff0000;fill-opacity:1;stroke-width:0.0499999"
       d="m 9.999998,86.000179 v 2.99982 H 4.999786 v 18.999871 3.00034 h 5.000212 v -3.00034 h 4.999695 v 3.00034 h 5.000211 v -3.00034 h 5.000212 v 3.00034 h 4.999695 v -3.00034 h 5.000211 v 3.00034 h 4.999695 v -3.00034 h 5.000212 v 3.00034 h 4.999695 v -3.00034 h 5.000211 v 3.00034 h 5.000212 v -3.00034 h 4.999695 v 3.00034 h 5.000208 v -3.00034 h 4.9997 v 3.00034 h 5.00021 v -3.00034 h 5.00021 v 3.00034 h 4.9997 v -3.00034 h 5.00021 v 3.00034 h 4.99969 v -3.00034 h 5.00021 v 3.00034 h 5.00022 v -3.00034 h 4.99969 v 3.00034 H 120 v -3.00034 h 4.9997 v 3.00034 h 5.00021 v -3.00034 h 5.00021 v 3.00034 h 4.99969 v -3.00034 h 5.00022 v 3.00034 h 4.99969 v -3.00034 h 5.00021 v -18.999871 -2.99982 h -5.00021 v 2.99982 h -4.99969 v -2.99982 h -5.00022 v 2.99982 h -4.99969 v -2.99982 h -5.00021 v 2.99982 h -5.00021 v -2.99982 H 120 v 2.99982 h -5.00021 v -2.99982 h -4.99969 v 2.99982 h -5.00022 v -2.99982 h -5.00021 v 2.99982 h -4.99969 v -2.99982 h -5.00021 v 2.99982 h -4.9997 v -2.99982 h -5.00021 v 2.99982 h -5.00021 v -2.99982 h -4.9997 v 2.99982 h -5.000208 v -2.99982 h -4.999695 v 2.99982 h -5.000212 v -2.99982 h -5.000211 v 2.99982 h -4.999695 v -2.99982 h -5.000212 v 2.99982 h -4.999695 v -2.99982 h -5.000211 v 2.99982 h -4.999695 v -2.99982 h -5.000212 v 2.99982 h -5.000211 v -2.99982 z m 0,8.00003 h 2.999817 v 8.999971 H 9.999998 Z" />
    <path
       id="rect1333"
       style="fill:#ff0000;fill-opacity:1;stroke-width:0.0499999"
       d="m 164.99988,4.99995 v 2.99982 h -4.99969 v 5.00021 h -3.00034 v 8.99997 h 3.00034 v 5.00021 h 4.99969 v 2.99982 h 8.99997 v -2.99982 h 5.00021 v -5.00021 h 2.99982 v -8.99997 h -2.99982 V 7.99977 h -5.00021 V 4.99995 Z m 1.00011,7.00009 h 7.00027 v 10.99985 h -7.00027 z"
       sodipodi:nodetypes="cccccccccccccccccccccccccc" />
    <path
       id="rect1933"
       style="fill:#ff0000;fill-opacity:1;stroke-width:0.0499999"
       d="m 10.000212,112.99982 c 0,0 -4.901859,0.001 -5.000212,5.00021 -0.1003235,5.09919 5.000212,4.9997 5.000212,4.9997 H 130.00012 v -2.99982 h 3.99976 l 0.99994,2.99982 h 25.00002 v -3.99976 h 3.00033 v 3.99976 h 2.99982 2.99982 3.00033 v -9.99991 h -3.00033 v 4.00027 h -2.99982 v -4.00027 h -2.99982 -3.00033 z m 4.999694,3.50005 h 9.999907 v 3.00033 h -9.999907 z m 30.000236,0 h 9.999907 v 3.00033 h -9.999907 z m 19.999813,0 h 9.999907 v 2.99981 h -9.999907 z" />
    <path
       id="rect1933-1"
       style="fill:#ff0000;fill-opacity:1;stroke-width:0.0499999"
       d="m 10.001673,124.99982 c 0,0 -4.9018592,0.001 -5.0002122,5.00021 -0.1003235,5.09919 5.0002122,4.9997 5.0002122,4.9997 H 130.00158 v -2.99982 h 3.99976 l 0.99994,2.99982 h 25.00002 v -3.99976 h 3.00033 v 3.99976 h 2.99982 2.99982 3.00033 v -9.99991 h -3.00033 v 4.00027 h -2.99982 v -4.00027 h -2.99982 -3.00033 z m 4.999694,3.50005 h 9.999907 v 3.00033 h -9.999907 z m 30.000236,0 h 9.999907 v 3.00033 h -9.999907 z m 19.999813,0 h 9.999907 v 2.99981 h -9.999907 z" />
    <path
       id="rect2303-8-9"
       style="fill:#ff0000;fill-opacity:1;stroke-width:0.0499999"
       d="m 158.5,32 c -0.831,0 -1.49965,0.66865 -1.49965,1.49965 V 47.49983 C 157.00035,48.33083 157.669,49 158.5,49 h 14.00018 c 0.831,0 1.50016,-0.66917 1.50016,-1.50017 V 33.49965 c 0,-0.831 -0.66916,-1.49965 -1.50016,-1.49965 z m 3.99992,3.49953 h 6.00033 v 10.00042 h -6.00033 z"
       sodipodi:nodetypes="sssssssssccccc" />
    <path
       id="rect2303-8-9-4"
       style="fill:#ff0000;fill-opacity:1;stroke-width:0.0499999"
       d="m 158.49991,51 c -0.831,0 -1.49965,0.66865 -1.49965,1.49965 v 14.00018 c 0,0.831 0.66865,1.50017 1.49965,1.50017 h 14.00018 c 0.831,0 1.50016,-0.66917 1.50016,-1.50017 V 52.49965 c 0,-0.831 -0.66916,-1.49965 -1.50016,-1.49965 z m 3.99992,3.49953 h 6.00033 v 10.00042 h -6.00033 z"
       sodipodi:nodetypes="sssssssssccccc" />
    <text
       xml:space="preserve"
       style="font-size:8.65347px;fill:#000000;fill-opacity:1;stroke:none;stroke-width:0.136275;stroke-opacity:1"
       x="36.212677"
       y="20.885881"
       id="text4978-8"><tspan
         sodipodi:role="line"
         id="tspan4976-8"
         style="font-style:normal;font-variant:normal;font-weight:normal;font-stretch:normal;font-family:Stencil;-inkscape-font-specification:Stencil;fill:#000000;fill-opacity:1;stroke-width:0.136275"
         x="36.212677"
         y="20.885881">MK3 Shooting Mechanism</tspan></text>
    <path
       id="rect2303-8-96"
       style="fill:#ff0000;fill-opacity:1;stroke-width:0.0499999"
       d="m 158.50034,105.99999 c -0.831,0 -1.50017,-0.66917 -1.50017,-1.50017 V 90.50016 c 0,-0.831 0.66917,-1.50016 1.50017,-1.50016 h 3.99992 v 9.4998 h 5.99982 V 89 H 172.5 c 0.831,0 1.50017,0.66916 1.50017,1.50016 v 13.99966 c 0,0.831 -0.66917,1.50017 -1.50017,1.50017 z"
       sodipodi:nodetypes="ssssccccsssss" />
    <path
       id="rect2303-8-96-8"
       style="fill:#ff0000;fill-opacity:1;stroke-width:0.0499999"
       d="M 158.50017,70 C 157.66917,70 157,70.66917 157,71.50017 v 13.99966 c 0,0.831 0.66917,1.50016 1.50017,1.50016 h 3.99992 v -9.4998 h 5.99982 v 9.4998 h 3.99992 c 0.831,0 1.50017,-0.66916 1.50017,-1.50016 V 71.50017 C 174,70.66917 173.33083,70 172.49983,70 Z"
       sodipodi:nodetypes="ssssccccsssss" />
    <rect
       style="fill:#ff0000;fill-opacity:1;stroke-width:0.0816496"
       id="rect9951-1"
       width="20"
       height="8"
       x="29"
       y="-185"
       transform="rotate(90)"
       ry="2" />
    <rect
       style="fill:#ff0000;fill-opacity:1;stroke-width:0.0499999"
       id="rect9951-1-7"
       width="6"
       height="10"
       x="36"
       y="-186"
       transform="rotate(90)" />
  </g>
</svg>
