<?xml version="1.0" encoding="UTF-8" standalone="no"?>
<!-- Created with Inkscape (http://www.inkscape.org/) -->

<svg
   width="210mm"
   height="297mm"
   viewBox="0 0 210 297"
   version="1.1"
   id="svg5"
   inkscape:version="1.2.1 (9c6d41e410, 2022-07-14)"
   sodipodi:docname="Shooting mechanism MK4.svg"
   xmlns:inkscape="http://www.inkscape.org/namespaces/inkscape"
   xmlns:sodipodi="http://sodipodi.sourceforge.net/DTD/sodipodi-0.dtd"
   xmlns="http://www.w3.org/2000/svg"
   xmlns:svg="http://www.w3.org/2000/svg">
  <sodipodi:namedview
     id="namedview7"
     pagecolor="#ffffff"
     bordercolor="#000000"
     borderopacity="0.25"
     inkscape:showpageshadow="2"
     inkscape:pageopacity="0.0"
     inkscape:pagecheckerboard="0"
     inkscape:deskcolor="#d1d1d1"
     inkscape:document-units="mm"
     showgrid="true"
     inkscape:zoom="0.69931958"
     inkscape:cx="280.27243"
     inkscape:cy="311.0166"
     inkscape:window-width="1920"
     inkscape:window-height="1001"
     inkscape:window-x="-9"
     inkscape:window-y="-9"
     inkscape:window-maximized="1"
     inkscape:current-layer="layer1">
    <inkscape:grid
       type="xygrid"
       id="grid2505"
       units="mm"
       spacingx="1"
       spacingy="1" />
  </sodipodi:namedview>
  <defs
     id="defs2" />
  <g
     inkscape:label="Layer 1"
     inkscape:groupmode="layer"
     id="layer1">
    <path
       id="rect448"
       style="fill:#ff0000;fill-opacity:1;stroke-width:0.0499999"
       d="M 9.9999064 5.0002116 L 9.9999064 8.0000285 L 4.9996948 8.0000285 L 4.9996948 26.999902 L 4.9996948 30.000236 L 5.0002116 30.000236 L 5.0002116 79.999768 L 30.000236 79.999768 L 30.000236 30.000236 L 29.999719 30.000236 L 29.999719 26.999902 L 34.999931 26.999902 L 34.999931 30.000236 L 34.999931 33.000053 L 40.000142 33.000053 L 40.000142 30.000236 L 39.999626 30.000236 L 39.999626 26.999902 L 44.999837 26.999902 L 44.999837 30.000236 L 44.999837 33.000053 L 50.000049 33.000053 L 50.000049 30.000236 L 49.999532 30.000236 L 49.999532 26.999902 L 54.999744 26.999902 L 54.999744 30.000236 L 54.999744 33.000053 L 59.999955 33.000053 L 59.999955 30.000236 L 59.999955 26.999902 L 64.99965 26.999902 L 64.99965 30.000236 L 65.000167 30.000236 L 65.000167 33.000053 L 69.999862 33.000053 L 69.999862 30.000236 L 69.999862 26.999902 L 74.999556 26.999902 L 74.999556 30.000236 L 75.000073 30.000236 L 75.000073 33.000053 L 79.999768 33.000053 L 79.999768 30.000236 L 79.999768 26.999902 L 84.99998 26.999902 L 84.99998 30.000236 L 84.99998 33.000053 L 90.000191 33.000053 L 90.000191 30.000236 L 89.999674 30.000236 L 89.999674 26.999902 L 94.999886 26.999902 L 94.999886 30.000236 L 94.999886 33.000053 L 100.0001 33.000053 L 100.0001 30.000236 L 99.999581 30.000236 L 99.999581 26.999902 L 104.99979 26.999902 L 104.99979 30.000236 L 104.99979 33.000053 L 110 33.000053 L 110 30.000236 L 110 26.999902 L 114.9997 26.999902 L 114.9997 30.000236 L 115.00022 30.000236 L 115.00022 33.000053 L 119.99991 33.000053 L 119.99991 30.000236 L 119.99991 26.999902 L 124.99961 26.999902 L 124.99961 30.000236 L 125.00012 30.000236 L 125.00012 33.000053 L 129.99982 33.000053 L 129.99982 30.000236 L 129.99982 26.999902 L 135.00003 26.999902 L 135.00003 30.000236 L 135.00003 33.000053 L 140.00024 33.000053 L 140.00024 30.000236 L 139.99972 30.000236 L 139.99972 26.999902 L 144.99993 26.999902 L 144.99993 30.000236 L 144.99993 33.000053 L 150.00015 33.000053 L 150.00015 30.000236 L 149.99963 30.000236 L 149.99963 26.999902 L 154.99984 26.999902 L 154.99984 8.0000285 L 154.99984 5.0002116 L 149.99963 5.0002116 L 149.99963 8.0000285 L 144.99993 8.0000285 L 144.99993 5.0002116 L 139.99972 5.0002116 L 139.99972 8.0000285 L 135.00003 8.0000285 L 135.00003 5.0002116 L 129.99982 5.0002116 L 129.99982 8.0000285 L 124.99961 8.0000285 L 124.99961 5.0002116 L 119.99991 5.0002116 L 119.99991 8.0000285 L 114.9997 8.0000285 L 114.9997 5.0002116 L 110 5.0002116 L 110 8.0000285 L 104.99979 8.0000285 L 104.99979 5.0002116 L 99.999581 5.0002116 L 99.999581 8.0000285 L 94.999886 8.0000285 L 94.999886 5.0002116 L 89.999674 5.0002116 L 89.999674 8.0000285 L 84.99998 8.0000285 L 84.99998 5.0002116 L 79.999768 5.0002116 L 79.999768 8.0000285 L 74.999556 8.0000285 L 74.999556 5.0002116 L 69.999862 5.0002116 L 69.999862 8.0000285 L 64.99965 8.0000285 L 64.99965 5.0002116 L 59.999955 5.0002116 L 59.999955 8.0000285 L 54.999744 8.0000285 L 54.999744 5.0002116 L 49.999532 5.0002116 L 49.999532 8.0000285 L 44.999837 8.0000285 L 44.999837 5.0002116 L 39.999626 5.0002116 L 39.999626 8.0000285 L 34.999931 8.0000285 L 34.999931 5.0002116 L 29.999719 5.0002116 L 29.999719 8.0000285 L 25.000024 8.0000285 L 25.000024 5.0002116 L 19.999813 5.0002116 L 19.999813 8.0000285 L 14.999601 8.0000285 L 14.999601 5.0002116 L 9.9999064 5.0002116 z M 9.9999064 13.00024 L 12.999723 13.00024 L 12.999723 22.000208 L 9.9999064 22.000208 L 9.9999064 13.00024 z M 9.9999064 26.999902 L 14.999601 26.999902 L 14.999601 30.000236 L 9.9999064 30.000236 L 9.9999064 26.999902 z M 19.999813 26.999902 L 25.000024 26.999902 L 25.000024 30.000236 L 19.999813 30.000236 L 19.999813 26.999902 z " />
    <path
       id="rect448-78"
       style="fill:#ff0000;fill-opacity:1;stroke-width:0.0499999"
       d="m 149.99965,109.9997 v -2.99982 h 5.00021 V 88 84.99967 h -5.1e-4 V 35.000138 H 129.99932 V 84.99967 h 5.2e-4 V 88 h -5.00021 v -3.00033 -2.99982 h -5.00021 v 2.99982 h 5.1e-4 V 88 h -5.00021 v -3.00033 -2.99982 h -5.00021 v 2.99982 h 5.2e-4 V 88 h -5.00022 V 84.99967 81.99985 H 99.9996 V 84.99967 88 h -4.99969 v -3.00033 h -5.2e-4 V 81.99985 H 89.9997 V 84.99967 88 H 85 v -3.00033 h -5.1e-4 v -2.99982 h -4.9997 V 84.99967 88 h -5.000212 v -3.00033 -2.99982 h -5.00021 v 2.99982 h 5.2e-4 V 88 h -5.00022 v -3.00033 -2.99982 h -5.00021 v 2.99982 h 5.2e-4 V 88 h -5.00021 V 84.99967 81.99985 H 49.999559 V 84.99967 88 h -4.9997 v -3.00033 h -5.2e-4 v -2.99982 h -4.99969 V 84.99967 88 h -4.9997 v -3.00033 h -5.1e-4 V 81.99985 H 29.999738 V 84.99967 88 h -5.000209 v -3.00033 -2.99982 h -5.00021 v 2.99982 h 5.2e-4 V 88 h -5.00021 v -3.00033 -2.99982 h -5.00022 v 2.99982 h 5.2e-4 V 88 H 4.999718 v 18.99988 2.99982 h 5.000211 v -2.99982 h 4.9997 v 2.99982 h 5.00021 v -2.99982 h 4.99969 v 2.99982 h 5.000209 v -2.99982 h 5.000211 v 2.99982 h 4.9997 v -2.99982 h 5.00021 v 2.99982 h 4.9997 v -2.99982 h 5.00021 v 2.99982 h 5.00021 v -2.99982 h 4.99969 v 2.99982 h 5.00022 v -2.99982 h 4.99969 v 2.99982 h 5.000211 v -2.99982 H 85 v 2.99982 h 4.9997 v -2.99982 h 5.00021 v 2.99982 h 4.99969 v -2.99982 h 5.00021 v 2.99982 h 5.00022 v -2.99982 h 4.99969 v 2.99982 h 5.00021 v -2.99982 h 4.9997 v 2.99982 h 5.00021 v -2.99982 h 4.99969 v 2.99982 h 5.00022 v -2.99982 h 5.00021 v 2.99982 z m 0,-8.00003 h -2.99981 V 92.9997 h 2.99981 z m 0,-13.99967 h -4.99969 v -3.00033 h 4.99969 z m -9.9999,0 h -5.00022 v -3.00033 h 5.00022 z" />
    <path
       id="rect448-7"
       style="fill:#ff0000;fill-opacity:1;stroke-width:0.0499999"
       d="M 9.999998,112.00018 V 115 H 4.9997864 v 21.99987 -2.99966 H 9.999998 v 2.99966 h 4.999695 v -2.99966 h 5.000211 v 2.99966 h 5.000212 v -2.99966 h 4.999695 v 2.99966 h 5.000211 v -2.99966 h 4.999695 v 2.99966 h 5.000212 v -2.99966 h 4.999695 v 2.99966 h 5.000211 v -2.99966 h 5.000212 v 2.99966 h 4.999695 v -2.99966 h 5.000211 v 2.99966 h 4.999695 v -2.99966 h 5.000212 v 2.99966 h 5.000211 v -2.99966 h 4.999695 v 2.99966 h 5.000214 v -2.99966 h 4.99969 v 2.99966 h 5.00021 v -2.99966 h 5.00022 v 2.99966 h 4.99969 v -2.99966 H 120 v 2.99966 h 4.9997 v -2.99966 h 5.00021 v 2.99966 h 5.00021 v -2.99966 h 4.99969 v 2.99966 h 5.00022 v -2.99966 h 4.99969 v 2.99966 h 5.00021 V 115 112.00018 h -5.00021 V 115 h -4.99969 v -2.99982 h -5.00022 V 115 h -4.99969 v -2.99982 h -5.00021 V 115 h -5.00021 v -2.99982 H 120 V 115 h -5.00021 v -2.99982 H 110.0001 V 115 h -5.00022 v -2.99982 H 99.99967 V 115 h -4.99969 v -2.99982 H 89.999766 V 115 h -4.999695 v -2.99982 H 79.99986 V 115 h -5.000212 v -2.99982 H 69.999953 V 115 h -5.000211 v -2.99982 H 60.000047 V 115 h -5.000212 v -2.99982 H 49.999624 V 115 h -4.999695 v -2.99982 H 39.999717 V 115 h -4.999695 v -2.99982 H 29.999811 V 115 h -4.999695 v -2.99982 H 19.999904 V 115 h -5.000211 v -2.99982 z m 0,8.00003 h 2.999817 v 8.99997 H 9.999998 Z"
       sodipodi:nodetypes="cccccccccccccccccccccccccccccccccccccccccccccccccccccccccccccccccccccccccccccccccccccccccccccccccccccccccccccccccccccccccccccccc" />
    <path
       id="rect448-4-4"
       style="fill:#ff0000;fill-opacity:1;stroke-width:0.0499999"
       d="M 9.999998,142.00018 V 139 H 4.999786 v 21.99987 3.00034 h 5.000212 v -3.00034 h 4.999695 v 3.00034 h 5.000211 v -3.00034 h 5.000212 v 3.00034 h 4.999695 v -3.00034 h 5.000211 v 3.00034 h 4.999695 v -3.00034 h 5.000212 v 3.00034 h 4.999695 v -3.00034 h 5.000211 v 3.00034 h 5.000212 v -3.00034 h 4.999695 v 3.00034 h 5.000208 v -3.00034 h 4.9997 v 3.00034 h 5.00021 v -3.00034 h 5.00021 v 3.00034 h 4.9997 v -3.00034 h 5.00021 v 3.00034 h 4.99969 v -3.00034 h 5.00021 v 3.00034 h 5.00022 v -3.00034 h 4.99969 v 3.00034 H 120 v -3.00034 h 4.9997 v 3.00034 h 5.00021 v -3.00034 h 5.00021 v 3.00034 h 4.99969 v -3.00034 h 5.00022 v 3.00034 h 4.99969 v -3.00034 h 5.00021 V 139 v 3.00018 h -5.00021 V 139 h -4.99969 v 3.00018 h -5.00022 V 139 h -4.99969 v 3.00018 h -5.00021 V 139 h -5.00021 v 3.00018 H 120 V 139 h -5.00021 v 3.00018 H 110.0001 V 139 h -5.00022 v 3.00018 H 99.99967 V 139 h -4.99969 v 3.00018 H 89.99977 V 139 h -4.9997 v 3.00018 H 79.99986 V 139 h -5.00021 v 3.00018 h -4.9997 V 139 h -5.000208 v 3.00018 H 60.000047 V 139 h -5.000212 v 3.00018 H 49.999624 V 139 h -4.999695 v 3.00018 H 39.999717 V 139 h -4.999695 v 3.00018 H 29.999811 V 139 h -4.999695 v 3.00018 H 19.999904 V 139 h -5.000211 v 3.00018 z m 0,5.00003 h 2.999817 v 8.99997 H 9.999998 Z"
       sodipodi:nodetypes="cccccccccccccccccccccccccccccccccccccccccccccccccccccccccccccccccccccccccccccccccccccccccccccccccccccccccccccccccccccccccccccccc" />
    <path
       id="rect1333"
       style="fill:#ff0000;fill-opacity:1;stroke-width:0.0499999"
       d="m 39.99989,34.999985 v 2.99982 H 35.0002 v 5.00021 h -3.00034 v 8.99997 h 3.00034 v 5.00021 h 4.99969 v 2.99982 h 8.99997 v -2.99982 h 5.00021 v -5.00021 h 2.99982 v -8.99997 h -2.99982 v -5.00021 h -5.00021 v -2.99982 z M 41,42.000075 h 7.00027 v 10.99985 H 41 Z"
       sodipodi:nodetypes="cccccccccccccccccccccccccc" />
    <path
       id="rect1933"
       style="fill:#ff0000;fill-opacity:1;stroke-width:0.0499999"
       d="m 10.000212,165.99982 c 0,0 -4.901859,0.001 -5.000212,5.00021 -0.1003235,5.09919 5.000212,4.9997 5.000212,4.9997 H 130.00012 v -2.99982 h 3.99976 l 0.99994,2.99982 h 25.00002 v -3.99976 h 3.00033 v 3.99976 h 2.99982 2.99982 3.00033 v -9.99991 h -3.00033 v 4.00027 h -2.99982 v -4.00027 h -2.99982 -3.00033 z m 4.999694,3.50005 h 9.999907 v 3.00033 h -9.999907 z m 30.000236,0 h 9.999907 v 3.00033 h -9.999907 z m 19.999813,0 h 9.999907 v 2.99981 h -9.999907 z" />
    <path
       id="rect1933-1"
       style="fill:#ff0000;fill-opacity:1;stroke-width:0.0499999"
       d="m 10.001673,177.99982 c 0,0 -4.9018592,0.001 -5.0002122,5.00021 -0.1003235,5.09919 5.0002122,4.9997 5.0002122,4.9997 H 130.00158 v -2.99982 h 3.99976 l 0.99994,2.99982 h 25.00002 v -3.99976 h 3.00033 v 3.99976 h 2.99982 2.99982 3.00033 v -9.99991 h -3.00033 v 4.00027 h -2.99982 v -4.00027 h -2.99982 -3.00033 z m 4.999694,3.50005 h 9.999907 v 3.00033 h -9.999907 z m 30.000236,0 h 9.999907 v 3.00033 h -9.999907 z m 19.999813,0 h 9.999907 v 2.99981 h -9.999907 z" />
    <path
       id="rect2303-8-9-7"
       style="fill:#ff0000;fill-opacity:1;stroke-width:0.0499999"
       d="m 73.5,36.999999 c -0.831,0 -1.49965,0.66865 -1.49965,1.49965 v 14.00018 c 0,0.831 0.66865,1.50017 1.49965,1.50017 h 14.00018 c 0.831,0 1.50016,-0.66917 1.50016,-1.50017 v -14.00018 c 0,-0.831 -0.66916,-1.49965 -1.50016,-1.49965 z m 3.99992,3.49953 h 6.00033 v 10.00042 h -6.00033 z"
       sodipodi:nodetypes="sssssssssccccc" />
    <path
       id="rect2303-8-9-4-5"
       style="fill:#ff0000;fill-opacity:1;stroke-width:0.0499999"
       d="m 73.49991,55.999999 c -0.831,0 -1.49965,0.66865 -1.49965,1.49965 v 14.00018 c 0,0.831 0.66865,1.50017 1.49965,1.50017 h 14.00018 c 0.831,0 1.50016,-0.66917 1.50016,-1.50017 v -14.00018 c 0,-0.831 -0.66916,-1.49965 -1.50016,-1.49965 z m 3.99992,3.49953 h 6.00033 v 10.00042 h -6.00033 z"
       sodipodi:nodetypes="sssssssssccccc" />
    <text
       xml:space="preserve"
       style="font-size:8.65347px;fill:#000000;fill-opacity:1;stroke:none;stroke-width:0.136275;stroke-opacity:1"
       x="36.212677"
       y="20.885881"
       id="text4978-8"><tspan
         sodipodi:role="line"
         id="tspan4976-8"
         style="font-style:normal;font-variant:normal;font-weight:normal;font-stretch:normal;font-family:Stencil;-inkscape-font-specification:Stencil;fill:#000000;fill-opacity:1;stroke-width:0.136275"
         x="36.212677"
         y="20.885881">MK4 Shooting Mechanism</tspan></text>
    <path
       id="rect9951-1"
       style="fill:#ff0000;fill-opacity:1;stroke-width:0.0816496"
       d="m 61.99982,34.999835 c -1.108,0 -1.99988,0.892396 -1.99988,2.000395 v 4.999695 H 59 v 6.00015 h 0.99994 v 5.000212 c 0,1.107999 0.89188,1.999878 1.99988,1.999878 h 4.00027 c 1.108,0 1.99988,-0.891879 1.99988,-1.999878 v -5.000212 h 0.99994 v -6.00015 H 67.99997 V 37.00023 c 0,-1.107999 -0.89188,-2.000395 -1.99988,-2.000395 z" />
    <path
       id="rect2303-8-96-4"
       style="fill:#ff0000;fill-opacity:1;stroke-width:0.0499999"
       d="m 92.500341,72.999989 c -0.831,0 -1.50017,-0.66917 -1.50017,-1.50017 v -13.99966 c 0,-0.831 0.66917,-1.50016 1.50017,-1.50016 h 3.999919 v 9.4998 h 5.99982 v -9.4998 H 106.5 c 0.831,0 1.50017,0.66916 1.50017,1.50016 v 13.99966 c 0,0.831 -0.66917,1.50017 -1.50017,1.50017 z"
       sodipodi:nodetypes="ssssccccsssss" />
    <path
       id="rect2303-8-96-8-6"
       style="fill:#ff0000;fill-opacity:1;stroke-width:0.0499999"
       d="m 92.500171,36.999999 c -0.831,0 -1.50017,0.66917 -1.50017,1.50017 v 13.99966 c 0,0.831 0.66917,1.50016 1.50017,1.50016 h 3.999919 v -9.4998 h 5.99982 v 9.4998 h 3.99992 c 0.831,0 1.50017,-0.66916 1.50017,-1.50016 v -13.99966 c 0,-0.831 -0.66917,-1.50017 -1.50017,-1.50017 z"
       sodipodi:nodetypes="ssssccccsssss" />
    <rect
       style="opacity:1;fill:#ff0000;fill-opacity:1;stroke-width:0.204124"
       id="rect24046"
       width="25"
       height="100"
       x="157"
       y="5"
       ry="8.8817842e-15" />
  </g>
</svg>
